HIERARCHY
ROOT Hips
{
  OFFSET -33.9132 29.2015 117.021
  CHANNELS 6 Xposition Yposition Zposition Zrotation Xrotation Yrotation
  JOINT LeftUpLeg
  {
    OFFSET 8.64259 1.95398 -2.38835
    CHANNELS 3 Zrotation Xrotation Yrotation
    JOINT LeftLeg
    {
      OFFSET 43.7702 0 0
      CHANNELS 3 Zrotation Xrotation Yrotation
      JOINT LeftFoot
      {
        OFFSET 40.6238 0 0
        CHANNELS 3 Zrotation Xrotation Yrotation
        JOINT LeftToeBase
        {
          OFFSET 12.7242 0 0
          CHANNELS 3 Zrotation Xrotation Yrotation
          End Site
          {
            OFFSET 0 0 0
          }
        }
      }
    }
  }
  JOINT RightUpLeg
  {
    OFFSET -8.2249 1.95398 -2.59336
    CHANNELS 3 Zrotation Xrotation Yrotation
    JOINT RightLeg
    {
      OFFSET 43.5653 0 0
      CHANNELS 3 Zrotation Xrotation Yrotation
      JOINT RightFoot
      {
        OFFSET 40.6238 0 0
        CHANNELS 3 Zrotation Xrotation Yrotation
        JOINT RightToeBase
        {
          OFFSET 12.7242 0 0
          CHANNELS 3 Zrotation Xrotation Yrotation
          End Site
          {
            OFFSET 0 0 0
          }
        }
      }
    }
  }
  JOINT Spine
  {
    OFFSET 0.165834 0.87714 6.61349
    CHANNELS 3 Zrotation Xrotation Yrotation
    JOINT Spine1
    {
      OFFSET 7.38963 1.71661e-005 0
      CHANNELS 3 Zrotation Xrotation Yrotation
      JOINT Spine2
      {
        OFFSET 11.9445 1.14441e-005 0
        CHANNELS 3 Zrotation Xrotation Yrotation
        JOINT Spine3
        {
          OFFSET 14.7254 4.19617e-005 0
          CHANNELS 3 Zrotation Xrotation Yrotation
          JOINT Spine4
          {
            OFFSET 10.9679 0 0
            CHANNELS 3 Zrotation Xrotation Yrotation
            JOINT RightShoulder
            {
              OFFSET 2.46616 -1.6653 3.69651
              CHANNELS 3 Zrotation Xrotation Yrotation
              JOINT RightArm
              {
                OFFSET 13.0012 0 0
                CHANNELS 3 Zrotation Xrotation Yrotation
                JOINT RightForeArm
                {
                  OFFSET 28.7848 1.62311e-005 0
                  CHANNELS 3 Zrotation Xrotation Yrotation
                  JOINT RightHand
                  {
                    OFFSET 26.5688 1.62095e-005 0
                    CHANNELS 3 Zrotation Xrotation Yrotation
                    End Site
                    {
                      OFFSET 0 0 0
                    }
                  }
                }
              }
            }
            JOINT LeftShoulder
            {
              OFFSET 2.38034 -1.29275 -3.7523
              CHANNELS 3 Zrotation Xrotation Yrotation
              JOINT LeftArm
              {
                OFFSET 16.3182 6.07031e-005 0
                CHANNELS 3 Zrotation Xrotation Yrotation
                JOINT LeftForeArm
                {
                  OFFSET 27.0901 0 0
                  CHANNELS 3 Zrotation Xrotation Yrotation
                  JOINT LeftHand
                  {
                    OFFSET 24.5451 1.51738e-005 0
                    CHANNELS 3 Zrotation Xrotation Yrotation
                    End Site
                    {
                      OFFSET 0 0 0
                    }
                  }
                }
              }
            }
            JOINT Neck
            {
              OFFSET 5.0226 -0.0266342 0
              CHANNELS 3 Zrotation Xrotation Yrotation
              JOINT Head
              {
                OFFSET 6.69364 2.86102e-005 0
                CHANNELS 3 Zrotation Xrotation Yrotation
                End Site
                {
                  OFFSET 0 0 0
                }
              }
            }
          }
        }
      }
    }
  }
}
MOTION
Frames:	11
Frame Time:	0.0416667
36.3209 92.0036 -267.512 64.7346 -73.445 66.3404 -168.121 -8.31935 96.4428 -25.9427 18.7075 -0.790362 73.8219 13.2329 5.94349 59.4769 12.6168 1.60335 177.104 50.1946 95.248 -79.5227 5.41123 -2.59753 79.753 -12.6826 -3.78859 13.4108 3.66295 8.94081 -2.40259 7.75276 -90.6518 11.359 -5.08474 -0.788237 -0.302044 -5.11447 -0.563115 -22.904 -4.61232 -2.28298 -2.89137 -4.61231 -2.28299 97.423 -11.5825 -95.9103 47.868 5.0693 65.0526 -56.852 -21.2147 -77.6427 -26.1142 8.70268 -42.3789 -86.0122 -27.2923 80.2977 -8.27183 -10.9829 -60.115 53.5878 39.6276 -66.433 77.3291 -20.1244 -21.5557 27.0348 3.12146 -6.97105 -6.66143 5.47062 3.52285 
36.9366 93.3507 -259.751 67.1533 -77.4457 68.3295 -169.133 -15.9016 95.7589 -20.1261 17.7062 0.138324 59.1001 1.79829 5.22845 65.7511 15.3168 -4.01383 179.853 48.7841 94.1747 -68.4301 2.25213 -2.70899 76.3279 -10.3059 -3.71026 15.1385 3.2744 8.18471 -2.56381 7.91057 -90.7622 11.0393 -5.457 -0.992758 -0.620318 -5.49538 -0.750928 -23.2306 -4.90583 -2.59048 -3.21799 -4.90582 -2.59047 96.8472 -10.5319 -97.945 43.4947 7.52201 69.0485 -57.7071 -19.095 -79.4496 -22.0499 7.41994 -43.0913 -85.5512 -25.9825 80.9007 -7.51851 -14.305 -56.456 45.6254 35.8753 -62.0884 80.6338 -23.6034 -24.5893 29.2992 5.57939 -5.13771 -10.5416 7.08681 3.95814 
37.4791 94.6158 -251.164 58.3009 -79.6992 61.8623 -170.243 -18.7386 96.5257 -18.9129 16.9058 2.34978 50.8597 -5.30349 2.27325 41.0995 6.24376 -5.32067 -179.438 47.1722 96.2925 -54.6973 -3.43028 -1.77549 71.5601 -7.94949 -4.57556 17.2692 2.10664 9.08375 -2.51154 7.87834 -91.2387 11.0756 -5.57378 -1.92688 -0.584488 -5.65316 -1.67904 -23.1822 -4.73686 -3.51548 -3.16954 -4.73685 -3.51548 96.4996 -9.04735 -99.5731 41.2625 8.9601 71.3157 -55.2315 -17.8236 -79.1473 -20.0511 7.36445 -46.1327 -84.6972 -25.0628 82.4431 -6.90034 -14.4889 -55.4289 46.9551 36.8732 -62.5173 77.9469 -23.6197 -25.94 31.0365 7.58904 -3.26333 -13.4489 8.18095 4.18211 
37.95 95.3929 -242.816 51.7971 -80.6254 56.1644 -171.704 -19.7346 95.4858 -22.8159 18.6567 4.17318 51.9876 -5.28533 2.93773 16.9429 -4.01622 -2.76824 -179.484 44.6295 96.6197 -41.7373 -10.298 -0.688319 70.0847 -7.3427 -3.22388 16.2861 2.23022 9.78505 -2.49657 7.80153 -91.5365 11.211 -5.68301 -2.50018 -0.449461 -5.7875 -2.24701 -23.038 -4.66908 -4.09436 -3.02538 -4.66909 -4.09436 95.7334 -8.2069 -102.284 40.4208 9.89515 72.2889 -52.2386 -18.3356 -77.3616 -22.2111 8.66116 -48.5667 -84.6613 -25.2911 82.5726 -4.51604 -12.0142 -54.0383 45.9218 36.7207 -61.9971 66.3702 -31.783 -43.1405 30.2864 9.03947 -1.77702 -14.4145 8.90355 4.45958 
38.0916 95.3474 -235.005 47.5959 -81.4118 51.2043 -171.887 -20.2712 94.341 -28.687 20.0271 3.61051 58.1498 -0.419916 5.19082 7.48882 -6.68091 -5.70704 -179.012 42.3243 96.2679 -31.8615 -16.2302 -0.431243 69.9367 -7.637 -3.44996 15.6435 1.78392 11.6511 -2.38576 7.68355 -91.5017 11.4509 -5.44786 -2.43864 -0.210409 -5.54988 -2.19597 -22.7937 -4.46331 -3.96472 -2.78104 -4.46331 -3.96472 94.9814 -10.17 -103.546 39.2413 10.3878 73.5818 -47.2484 -15.8001 -76.9223 -18.3895 7.0509 -48.2601 -84.7366 -25.2522 82.4063 -5.06593 -6.97601 -53.893 43.8845 37.5186 -59.9522 67.1213 -30.8501 -41.5125 27.9423 8.86089 -2.98651 -12.9976 9.03463 6.65627 
37.9649 94.8837 -227.557 51.5989 -82.6061 53.6848 -171.172 -20.0379 93.8642 -36.1582 18.9007 2.41982 60.021 1.1321 4.54818 12.1434 -4.42351 -5.91862 -179.877 39.9648 96.361 -27.8691 -18.0434 0.214507 69.4191 -7.42088 -4.49871 16.6977 1.18696 12.2369 -2.28372 7.6925 -91.348 11.4431 -5.1731 -2.16033 -0.219007 -5.26314 -1.93007 -22.8008 -4.28476 -3.61669 -2.78814 -4.28477 -3.61669 94.4931 -13.1817 -103.466 39.3139 9.97508 71.7225 -43.3978 -14.3725 -76.3027 -20.4961 7.46415 -46.0311 -85.5971 -28.0841 81.325 -3.4107 -0.935622 -52.3005 41.4811 36.8287 -58.5036 77.2776 -23.9781 -26.6719 26.4557 8.55116 -2.80398 -12.594 8.68249 6.53193 
37.6421 94.2092 -220.208 64.346 -83.818 64.8837 -170.437 -17.8979 93.7963 -46.7281 15.9362 1.82846 55.5917 -2.24582 3.11601 24.9107 1.01942 -6.35341 178.79 38.2581 96.6748 -30.0804 -15.9395 0.891882 67.5752 -5.61318 -4.6535 18.7731 2.59339 5.9954 -2.22185 7.81123 -91.126 11.2179 -4.94552 -1.75511 -0.444467 -5.01795 -1.53529 -23.0281 -4.18932 -3.16202 -3.01548 -4.18932 -3.16202 93.7206 -17.2952 -103.644 38.3656 10.2176 65.4568 -43.5907 -16.7306 -73.9538 -26.9237 9.91946 -45.9557 -86.6317 -32.517 80.3948 -2.19552 4.16664 -49.1983 44.188 38.9057 -59.5605 76.0081 -21.7025 -24.3545 26.5609 8.20278 -2.4172 -13.364 8.25561 5.52157 
37.4397 93.5929 -212.781 80.59 -84.7553 81.1096 -168.173 -13.7003 95.8312 -58.3587 14.7974 1.27626 52.3198 -4.6117 6.97515 31.2191 3.61455 -6.64347 177.462 36.7918 97.5829 -35.3648 -17.6675 1.61727 61.1805 -0.310442 -4.28803 14.7476 3.42502 8.10308 -2.02993 7.91779 -91.0525 11.008 -4.52859 -1.66128 -0.65591 -4.5973 -1.46002 -23.2307 -3.8199 -2.94676 -3.21804 -3.81991 -2.94676 93.0031 -21.2839 -103.735 37.9913 9.66672 60.4113 -41.8667 -16.2697 -73.3577 -30.347 10.4197 -43.0715 -88.1624 -37.3631 78.8117 -2.59397 8.68915 -44.5644 46.0963 40.8661 -60.5274 72.0633 -21.6938 -26.1158 25.1755 7.47064 -2.59725 -12.6328 7.6383 5.50082 
37.0984 92.4786 -205.529 95.7544 -85.1766 96.5864 -166.303 -7.89419 98.0867 -70.4842 8.47217 1.65519 55.7573 -2.28679 6.18926 27.941 2.40748 -6.70557 175.211 36.6376 99.5207 -46.7845 -19.0187 2.58891 68.3052 -5.45651 -5.64747 5.08276 6.96488 9.10903 -1.79954 7.95097 -91.0936 10.9409 -4.08864 -1.78836 -0.724586 -4.16336 -1.60645 -23.2875 -3.3622 -2.93515 -3.27485 -3.36221 -2.93517 92.1501 -23.7751 -104.677 38.849 8.1386 55.107 -36.2021 -14.1225 -72.1133 -34.9832 11.0647 -39.9565 -89.8978 -43.8046 77.4737 -1.55452 13.471 -38.3183 44.9904 40.8846 -59.801 74.9698 -18.3729 -20.5674 22.2154 7.43272 0.274553 -9.76382 6.86671 3.45389 
36.5005 91.5542 -198.791 106.535 -85.4983 109.417 -165.52 -0.0966375 100.891 -81.6318 4.48876 2.79275 59.3975 0.159353 6.3207 28.4284 2.99848 -7.72786 173.699 33.8 102.978 -52.3007 -19.0207 3.07826 71.656 -9.27188 -7.95247 13.1372 3.40138 9.83804 -1.40139 8.02821 -91.3502 10.7801 -3.41343 -2.37099 -0.888219 -3.51445 -2.2184 -23.4285 -2.54339 -3.28702 -3.41585 -2.5434 -3.28703 92.1009 -26.5475 -103.748 38.6832 6.31435 48.6991 -33.179 -11.5747 -73.5915 -36.4414 10.56 -37.0747 -90.4906 -47.5611 77.4397 -5.3468 17.8605 -32.205 43.4987 40.7566 -58.8353 70.3751 -18.5397 -22.8594 20.2134 6.5588 1.83066 -6.36398 5.66157 2.99343 
35.8861 90.8849 -192.316 116.091 -85.4626 122.765 -167.227 9.51385 104.428 -91.5303 4.58038 4.16364 62.3348 2.29007 7.99416 26.2909 2.33245 -7.98972 173.012 28.8283 107.185 -53.6307 -18.4993 4.10818 75.0902 -12.9227 -9.35485 14.0493 3.09463 9.74769 -0.96746 8.17267 -91.7788 10.4773 -2.743 -3.29074 -1.19465 -2.8851 -3.16694 -23.7062 -1.6281 -3.96212 -3.69357 -1.6281 -3.96212 91.8204 -29.4041 -103.327 38.5335 4.07142 39.1694 -25.7172 -8.48771 -73.2887 -38.3301 10.3252 -34.8852 -91.432 -50.3412 76.6738 -11.1374 16.0073 -23.0699 47.2558 45.004 -60.2247 65.4906 -18.1053 -24.4066 20.5503 6.01787 3.65431 -5.18296 4.63292 0.949554 
